<?xml version="1.0" standalone="no"?><!DOCTYPE svg PUBLIC "-//W3C//DTD SVG 1.1//EN" "http://www.w3.org/Graphics/SVG/1.1/DTD/svg11.dtd"><svg t="1782549871553" class="icon" viewBox="0 0 1791 1024" version="1.1" xmlns="http://www.w3.org/2000/svg" p-id="11064" xmlns:xlink="http://www.w3.org/1999/xlink" width="349.8046875" height="200"><path d="M1388.674742 208.250013a51850.029312 51850.029312 0 0 0-89.170769 334.795708c-14.59158 55.891726-28.969834 111.783453-45.822683 166.992532-16.383529 53.715789-36.478951 111.015475-65.747443 159.782073-30.591121 50.89987-70.141983 90.621395-124.924409 116.049997a314.017639 314.017639 0 0 1-67.838049 22.186029c-33.40704 7.039798-66.984741 9.941048-100.903766 11.860992-84.050917 4.735864-262.349791 4.053217-346.358042 4.053217l51.497186-190.927844c38.996212 0 77.992424 0.127996 116.945971-0.93864 37.630918-1.023971 79.016395-3.071912 116.049997-11.818327 40.617499-9.599724 71.251285-26.025918 98.045181-59.091634 24.404632-30.03647 40.830826-67.582057 54.313105-102.951707 24.575293-64.595476 49.705238-157.136816 67.454061-223.652237 20.052757-75.347167 39.337536-150.864996 58.792977-226.340159z m347.12602 0l-149.841025 555.376033h-277.666684l149.841026-555.376033h277.666683zM820.072423 0h277.709349c-29.09783 108.370218-58.152995 216.825766-87.592148 325.110653-20.479411 75.517829-40.873492 150.992992-63.144852 225.95617-9.685055 32.681727-19.37011 65.278123-32.127076 97.021211-10.239706 25.471268-21.631378 48.211947-42.793436 67.240734-15.786213 14.207592-32.980385 23.039338-53.033142 29.353822-25.812591 8.106434-51.881175 11.093014-78.50441 13.268952-38.313565 3.157243-76.669796 3.967886-115.068692 4.565202-88.317461 1.40796-248.611519 1.237298-336.886314 0.853309a6921.187683 6921.187683 0 0 1-95.186597-0.93864 1549.395455 1549.395455 0 0 1-68.947351-2.389264 384.671607 384.671607 0 0 1-45.694686-5.077188 133.884151 133.884151 0 0 1-29.865808-8.618418c-31.743087-13.866268-47.913289-41.641469-48.894595-75.432498-0.511985-19.327444 2.815919-37.758914 6.698475-56.489043 5.503842-26.452573 12.372978-52.606488 19.114117-78.760402 12.970294-50.003896 36.692278-142.246577 55.123748-190.799848 14.50625-38.014907 33.577701-75.901818 69.885991-99.965126 20.308749-13.482279 41.641469-20.650073 65.150127-25.385937 17.49283-3.498566 34.985661-5.33318 52.649153-6.655809a1576.488009 1576.488009 0 0 1 88.957442-3.413235c42.153455-0.767978 84.30691-0.895974 126.460365-1.02397l105.212975-0.170662h105.170309l-37.460256 138.876007c-62.50487 0-125.009739-0.213327-187.514609 0.170662-18.260808 0.127996-36.478951 0-54.697094 1.151967-6.485147 0.426654-12.799632 0.853309-19.071452 3.029246-8.23443 2.858584-12.287647 8.063768-15.914209 15.487555-5.290515 10.837022-8.362426 22.314025-11.732996 33.791028-5.119853 17.49283-9.898382 35.113657-14.676911 52.77715-7.381121 27.13522-14.719577 54.313105-21.716709 81.533655-2.559926 10.111709-5.119853 20.223419-7.253125 30.377794a184.826686 184.826686 0 0 0-3.626562 21.546047c-0.725312 7.978437-0.93864 17.535496 3.839889 24.916617 4.949191 7.509117 13.226286 9.2584 20.948731 10.367702 8.746415 1.279963 17.49283 1.578621 26.281911 1.834614 14.420919 0.426654 28.799172 0.511985 43.177426 0.554651 39.380201 0.213327 78.760402 0.213327 118.140603 0 18.132812-0.127996 36.265624-0.255993 54.398436-0.981306 12.458308-0.511985 24.788621-0.93864 37.118933-3.92522 9.343731-2.261268 16.639522-5.8025 22.954007-13.439614 4.266544-5.205184 7.082463-10.922353 9.642389-17.02351 6.314485-15.103566 10.751691-30.719117 15.359559-46.377334 17.791488-59.944943 33.748363-120.316541 50.089226-180.688138l48.809264-181.072128L820.029757 0h277.70935z" p-id="11065"></path></svg>