<?xml version="1.0" standalone="no"?><!DOCTYPE svg PUBLIC "-//W3C//DTD SVG 1.1//EN" "http://www.w3.org/Graphics/SVG/1.1/DTD/svg11.dtd"><svg t="1782982015657" class="icon" viewBox="0 0 1024 1024" version="1.1" xmlns="http://www.w3.org/2000/svg" p-id="6689" xmlns:xlink="http://www.w3.org/1999/xlink" width="200" height="200"><path d="M836.608 973.141333H187.392c-75.434667 0-136.533333-61.098667-136.533333-136.533333V187.392c0-75.434667 61.098667-136.533333 136.533333-136.533333h649.557333c75.434667 0 136.533333 61.098667 136.533334 136.533333v649.557333c-0.341333 75.093333-61.44 136.192-136.874667 136.192z" fill="#2D2D2D" p-id="6690"></path><path d="M528.042667 242.346667l-44.373334 63.146666c-6.826667 9.898667-18.432 16.042667-30.72 16.042667h-242.346666V242.005333c-0.341333 0.341333 317.44 0.341333 317.44 0.341334zM829.44 242.346667L448.512 781.994667H194.56L575.488 242.346667zM495.957333 781.994667l44.714667-63.488c6.826667-9.898667 18.432-16.042667 30.72-16.042667h242.005333v79.530667h-317.44z" fill="#FFFFFF" p-id="6691"></path></svg>