<?xml version="1.0" standalone="no"?><!DOCTYPE svg PUBLIC "-//W3C//DTD SVG 1.1//EN" "http://www.w3.org/Graphics/SVG/1.1/DTD/svg11.dtd"><svg t="1782635026676" class="icon" viewBox="0 0 1024 1024" version="1.1" xmlns="http://www.w3.org/2000/svg" p-id="11740" xmlns:xlink="http://www.w3.org/1999/xlink" width="200" height="200"><path d="M911.985 511.99c0 287.093-112.902 400.025-399.995 400.025-287.063 0-399.995-112.932-399.995-400.025 0-287.063 112.932-399.995 400.025-399.995 287.063 0 399.965 112.932 399.965 400.025z" fill="#F2F2F2" p-id="11741"></path><path d="M518.259 436.322c-57.207 0-80.882 18.807-100.233 54.304-19.352 35.528-28.695 48.287-45.899 70.088-34.409 43.63-61.259 40.819-61.259 111.027 0.908 55.574 53.398 82.999 106.039 82.817 26.305-0.09 52.671-7.075 72.658-20.893 22.828-11.4 34.378-10.885 57.206-0.212 20.5 13.848 47.834 20.924 75.168 21.105 54.667 0.363 109.334-26.91 109.334-82.847 0-65.613-33.562-63.194-69.241-108.125-17.84-22.465-27.303-35.92-46.261-72.022-18.989-36.072-41.817-55.242-97.512-55.242z m-29.088-90.255c0 42.315-23.608 76.618-52.732 76.618-29.11-0.024-52.701-34.32-52.701-76.618 0-42.298 23.59-76.594 52.701-76.619 29.124 0 52.732 34.304 52.732 76.619zM367.682 473.3c-0.012 37.878-23.618 68.576-52.732 68.576-29.102-0.022-52.689-30.713-52.701-68.576 0-37.875 23.59-68.584 52.701-68.606 29.123 0 52.732 30.716 52.732 68.606z m277-127.234c0 42.315-23.609 76.618-52.732 76.618-29.11-0.024-52.701-34.32-52.701-76.618 0-42.298 23.59-76.594 52.701-76.619 29.123 0 52.732 34.304 52.732 76.619zM761.732 473.3c-0.014 37.878-23.619 68.576-52.733 68.576-29.102-0.022-52.689-30.713-52.701-68.576 0-37.875 23.59-68.584 52.701-68.606 29.123 0 52.732 30.716 52.732 68.606z" fill="#0066FF" p-id="11742"></path><path d="M465.746 531.25l-0.363 14.786-0.967 45.143h-27.938a55.302 55.302 0 0 0-39.459 16.448c-16.216 15.97-20.992 40.245-12.034 61.168a56.179 56.179 0 0 0 51.493 34.227h55.664l1.33-82.212h0.243v-14.513l1.3-59.596 0.302-14.816z m-29.268 89.56h27.363l-0.846 52.58h-26.517c-14.585 0.137-26.442-11.72-26.306-26.305-0.05-14.549 11.757-26.356 26.306-26.305z m85.097-14.876c0.078 13.778 0.239 27.556 0.484 41.333l0.181 5.956c0.06 1.603-0.363 1.028 0.484 5.14a55.665 55.665 0 0 0 15.239 28.271c10.099 10.1 24.189 16.388 39.519 16.388h49.347V591.148h-29.631v82.213h-19.716a26.003 26.003 0 0 1-24.19-16.056 25.973 25.973 0 0 1-1.572-4.928c0.726 3.447 0.182 0.907 0.121-0.424-0.189-7.155-0.33-14.31-0.423-21.467-0.151-11.58-0.212-23.645-0.212-24.582v-14.816h-29.631z" fill="#F9F9F9" p-id="11743"></path></svg>