<?xml version="1.0" standalone="no"?><!DOCTYPE svg PUBLIC "-//W3C//DTD SVG 1.1//EN" "http://www.w3.org/Graphics/SVG/1.1/DTD/svg11.dtd"><svg t="1782635092259" class="icon" viewBox="0 0 1199 1024" version="1.1" xmlns="http://www.w3.org/2000/svg" p-id="18301" xmlns:xlink="http://www.w3.org/1999/xlink" width="234.1796875" height="200"><path d="M599.010743 585.142857L380.342857 254.741943c6.612114-7.021714 13.253486-13.897143 19.894857-20.6848L614.4 557.8752c-4.681143 8.484571-9.801143 17.6128-15.389257 27.267657M1169.378743 189.586286c10.8544-2.925714 4.008229-1.667657 30.164114-8.016457-42.1888-8.6016-298.656914 3.8912-494.533486 257.2288l-172.587885-255.912229h-66.823315l205.2096 303.572114c-5.149257 7.811657-10.327771 15.652571-15.36 23.815315a197.514971 197.514971 0 0 0-3.364571 5.705142L430.6944 189.674057C558.226286 71.124114 673.616457 0 673.616457 0c-16.764343 9.450057-32.9728 19.017143-48.917943 28.554971-88.590629 51.024457-165.6832 102.8096-232.535771 154.331429H359.277714l11.410286 16.822857c-7.957943 6.3488-15.798857 12.6976-23.434971 19.017143l-24.3712-35.84H256.087771l48.9472 71.972571c-149.328457 132.593371-233.442743 260.154514-272.764342 364.631772-46.138514 122.411886-31.217371 201.757257-24.693029 225.865143 9.947429 36.864 27.999086 66.121143 49.5616 90.258285 109.3632 122.821486 297.749943 96.256 444.357486 47.9232 128.234057-40.842971 230.458514-103.541029 230.458514-103.541028-271.506286 137.801143-549.888 174.109257-623.586743-45.962972-0.760686-2.2528-1.609143-4.5056-2.135771-6.846171-7.811657-34.757486-9.303771-73.201371 1.082514-127.7952 29.344914-154.185143 121.329371-294.063543 222.851657-407.552l243.360914 357.814857c-74.166857 110.650514-197.719771 249.709714-382.595657 287.685486 0 0 318.142171 27.794286 506.528915-227.415772l153.365942 227.415772h66.794058l-187.333486-277.152914c3.013486-5.149257 5.997714-10.357029 8.923428-15.711086 1.960229-3.598629 4.447086-8.016457 7.168-12.873143l207.4624 305.737143h66.823315l-243.419429-358.341486c5.822171-9.508571 12.141714-19.6608 18.900114-30.3104l264.192 388.651886h66.794058L828.942629 498.980571c83.031771-121.534171 209.627429-274.139429 340.436114-309.423542" fill="#0294AD" p-id="18302"></path></svg>