<?xml version="1.0" standalone="no"?><!DOCTYPE svg PUBLIC "-//W3C//DTD SVG 1.1//EN" "http://www.w3.org/Graphics/SVG/1.1/DTD/svg11.dtd"><svg t="1782549907585" class="icon" viewBox="0 0 1024 1024" version="1.1" xmlns="http://www.w3.org/2000/svg" p-id="15021" data-spm-anchor-id="a313x.search_index.0.i8.166f3a81DrzyM0" xmlns:xlink="http://www.w3.org/1999/xlink" width="200" height="200"><path d="M511.5 63.4c-247.4 0-448 200.6-448 448s200.6 448 448 448 448-200.6 448-448c0-247.5-200.6-448-448-448zM758.1 651c-11.6 10.8-31.4-1-50.5-27.4-8.3 22.4-19.1 43-31.6 61.5 27 9.6 44.4 24.7 44.4 41.7 0 29.3-51.9 53-115.9 53-38 0-71.5-8.3-92.8-21.2-21 12.9-54.8 21.2-92.8 21.2-64 0-115.9-23.7-115.9-53 0-16.8 17.4-32 44.4-41.7-12.7-18.5-23.3-39.1-31.6-61.5-19.1 26.2-39 38.2-50.5 27.4-15.8-14.8-9.8-67.3 13.7-117.1 5.4-11.4 11.2-21.6 17.2-30.5 3.3-144.6 98.5-260.7 215.4-260.7h0.4c116.9 0 212.1 115.9 215.4 260.7 6 8.9 11.8 19.1 17.2 30.5 23.2 49.8 29.4 102.3 13.5 117.1z m0 0" p-id="15022" fill="#1296db"></path></svg>