<?xml version="1.0" standalone="no"?><!DOCTYPE svg PUBLIC "-//W3C//DTD SVG 1.1//EN" "http://www.w3.org/Graphics/SVG/1.1/DTD/svg11.dtd"><svg t="1782549944524" class="icon" viewBox="0 0 1126 1024" version="1.1" xmlns="http://www.w3.org/2000/svg" p-id="18452" xmlns:xlink="http://www.w3.org/1999/xlink" width="219.921875" height="200"><path d="M1126.46 608.639c-131.207 72.784-264.218 139.477-411.3 170.084-33.084 6.883-69.087 6.618-102.704 2.03-32.035-4.37-47.577-32.76-36.32-63.071 10.568-28.452 25.118-56.788 43.77-80.582 40.031-51.083 85.092-98.204 125.626-148.92 24.83-31.067 47.05-64.678 66.737-99.255 14.15-24.855 7.82-54.475-17.263-66.968-42.148-20.997-87.465-35.736-131.88-51.927-5.11-1.864-12.964 3.79-22.924 7.072a272087.95 272087.95 0 0 0 35.077 32.262c-132.027 22.633-257.6 55.653-379.304 100.752-0.53 2.659-1.554 4.553-0.99 5.443 17.92 28.256 9.51 49.762-16.476 67.447-9.938 6.76-19.02 14.787-26.5 25.306 80.15 24.146 151.714 10.38 219.778-35.622-4.239-6.28-8.047-11.922-12.19-18.064 25.92 4.455 41.318 19.021 43.324 41.706 0.444 5.004-2.744 10.328-4.262 15.504-3.794-4.18-8-8.068-11.232-12.644-2.003-2.843-2.529-6.727-4.285-11.773-81.16 55.613-168.363 69.532-264.736 40.659 0 19.33-0.912 35.766 0.275 52.047 1.027 14.047-4.782 20.011-16.727 27.43-27.932 17.348-56.602 35.38-79.45 58.57-27.9 28.323-17.49 62.505 19.9 76.964 42.633 16.485 87.327 16.759 131.774 11.29 52.66-6.48 105.033-15.29 162.183-23.78-67.546 32.193-133.34 55.059-203.383 64.369-48.755 6.48-97.479 10.115-145.873-3.853-69.293-19.996-100.183-72.58-81.946-142.568 17.106-65.644 57.798-118.019 102.08-166.4 147.393-161.031 333.647-242.87 549.38-258.933 50.305-3.742 101.265 2.864 148.364 24.747 66.458 30.877 93.86 95.979 61.822 161.834-21.245 43.669-50.586 83.818-79.46 123.23-28.525 38.94-61.284 74.76-91.62 112.404-8.95 11.108-17.034 23.208-23.654 35.834-12.56 23.951-3.946 40.329 23.192 37.622 56.923-5.678 114.823-10.15 169.81-24.651 80.72-21.293 159.25-50.904 238.68-77.06 7.677-2.526 15.144-5.675 22.706-8.535z" fill="#FF6600" p-id="18453"></path></svg>